<?xml version="1.0" encoding="UTF-8"?>
<svg width="67px" height="67px" viewBox="0 0 67 67" version="1.1" xmlns="http://www.w3.org/2000/svg" xmlns:xlink="http://www.w3.org/1999/xlink">
    <title>Artboard</title>
    <g id="Artboard" stroke="none" stroke-width="1" fill="none" fill-rule="evenodd">
        <rect fill="#FAF7F2" x="0" y="0" width="67" height="67"></rect>
        <g id="Group" transform="translate(9.000000, 9.000000)" fill="#1D1D1B">
            <path d="M12.6674032,12 L11.1717952,13.4370038 L0,24.1995846 L0,24.8008649 L11.1794949,35.5668174 L12.6625034,36.9995504 L13.2868789,37 L17,33.4231125 L16.9990667,32.8211579 C16.2785616,32.1308656 15.6474197,31.3495383 15.1231403,30.4987547 C14.0090173,28.6915421 13.4203404,26.6172935 13.4203404,24.5001124 C13.4203404,22.3878764 14.0078507,20.3147517 15.1194071,18.5050665 C15.6455531,17.6540581 16.2783283,16.869584 17,16.1745713 L17,15.5735158 L13.2910788,12.0004496 L12.6674032,12 Z" id="Fill-1"></path>
            <path d="M37.8608865,12.3489646 L25.7219966,0 L25,0.304345453 L25,12.6530826 L25.4228231,13.0832151 C31.8872531,13.0832151 37.1431382,18.4299596 37.1431382,25.0020472 C37.1431382,28.0616516 36.0191131,30.9413328 33.9687232,33.1588692 L25.7219966,24.7693525 L25,25.0734705 L25,49.695882 L25.721773,50 L37.8257817,37.6908414 L37.8412099,37.6744641 L37.8687124,37.6433017 L50,25.3061652 L50,24.6979292 L37.8608865,12.3489646 Z" id="Fill-3"></path>
        </g>
    </g>
</svg>