<?xml version="1.0" encoding="UTF-8"?>
<svg width="80px" height="80px" viewBox="0 0 80 80" version="1.1" xmlns="http://www.w3.org/2000/svg" xmlns:xlink="http://www.w3.org/1999/xlink">
    <title>Group</title>
    <g id="Page-1" stroke="none" stroke-width="1" fill="none" fill-rule="evenodd">
        <g id="Aanvraag---voltooid" transform="translate(-1291.000000, -234.000000)" fill="#1D1D1B">
            <g id="Group" transform="translate(1331.000000, 274.000000) rotate(-360.000000) translate(-1331.000000, -274.000000) translate(1291.000000, 234.000000)">
                <path d="M20.2678452,19.2 L17.8748724,21.4992061 L0,38.7193354 L0,39.6813839 L17.8871919,56.9069079 L20.2600055,59.1992807 L21.2590063,59.2 L27.2,53.4769801 L27.1985067,52.5138526 C26.0456986,51.4093849 25.0358715,50.1592613 24.1970244,48.7980076 C22.4144277,45.9064673 21.4725446,42.5876696 21.4725446,39.2001798 C21.4725446,35.8206022 22.4125611,32.5036027 24.1910513,29.6081064 C25.032885,28.246493 26.0453253,26.9913344 27.2,25.8793142 L27.2,24.9176253 L21.265726,19.2007193 L20.2678452,19.2 Z" id="Fill-1"></path>
                <path d="M60.5774184,19.7583433 L41.1551946,0 L40,0.486952724 L40,20.2449321 L40.6765169,20.9331441 C51.019605,20.9331441 59.4290212,29.4879354 59.4290212,40.0032755 C59.4290212,44.8986425 57.630581,49.5061324 54.3499571,53.0541908 L41.1551946,39.6309641 L40,40.1175529 L40,79.5134112 L41.1548369,80 L60.5212507,60.3053463 L60.5459359,60.2791426 L60.5899399,60.2292827 L80,40.4898643 L80,39.5166867 L60.5774184,19.7583433 Z" id="Fill-3"></path>
            </g>
        </g>
    </g>
</svg>