<?xml version="1.0" encoding="UTF-8"?>
<svg width="234px" height="51px" viewBox="0 0 234 51" version="1.1" xmlns="http://www.w3.org/2000/svg" xmlns:xlink="http://www.w3.org/1999/xlink">
    <title>Group 46</title>
    <defs>
        <polygon id="path-1" points="0 0 14 0 14 22 0 22"></polygon>
    </defs>
    <g id="Page-1" stroke="none" stroke-width="1" fill="none" fill-rule="evenodd">
        <g id="Home" transform="translate(-117.000000, -41.000000)">
            <g id="Group-46" transform="translate(117.000000, 41.000000)">
                <path d="M12.6674032,13 L11.1717952,14.4370038 L0,25.1995846 L0,25.8008649 L11.1794949,36.5668174 L12.6625034,37.9995504 L13.2868789,38 L17,34.4231125 L16.9990667,33.8211579 C16.2785616,33.1308656 15.6474197,32.3495383 15.1231403,31.4987547 C14.0090173,29.6915421 13.4203404,27.6172935 13.4203404,25.5001124 C13.4203404,23.3878764 14.0078507,21.3147517 15.1194071,19.5050665 C15.6455531,18.6540581 16.2783283,17.869584 17,17.1745713 L17,16.5735158 L13.2910788,13.0004496 L12.6674032,13 Z" id="Fill-1" fill="#000000"></path>
                <path d="M37.8608865,13.3489646 L25.7219966,1 L25,1.30434545 L25,13.6530826 L25.4228231,14.0832151 C31.8872531,14.0832151 37.1431382,19.4299596 37.1431382,26.0020472 C37.1431382,29.0616516 36.0191131,31.9413328 33.9687232,34.1588692 L25.7219966,25.7693525 L25,26.0734705 L25,50.695882 L25.721773,51 L37.8257817,38.6908414 L37.8412099,38.6744641 L37.8687124,38.6433017 L50,26.3061652 L50,25.6979292 L37.8608865,13.3489646 Z" id="Fill-3" fill="#000000"></path>
                <path d="M77.3647977,22 C79.8092969,22 82.267762,21.4464012 83.9411104,20.5188963 L84,20.4862249 L84,14.3498995 L83.3431369,14.3498995 L81.1879647,18.365533 C80.1558842,19.3295663 78.8591497,19.8180492 77.3333744,19.8180492 C73.8630793,19.8180492 71.6206203,16.5171028 71.6206203,11.4083386 C71.6206203,6.16094773 73.6114603,3.15132133 77.0826864,3.15132133 C78.9846101,3.15132133 79.9771206,3.69584477 80.876525,4.514445 L82.9700144,8.06972925 L83.6240843,8.06972925 L83.6240843,1.91752199 L83.5444787,1.89188401 C81.6716506,1.28337907 79.8872732,1 77.9287876,1 C72.4890669,1 67,4.4071285 67,12.0193392 C67,17.8958815 71.262162,22 77.3647977,22" id="Fill-5" fill="#000000"></path>
                <path d="M95.8305363,19.9970928 L95.8305363,21.6956522 L101,21.6956522 L101,19.5211254 L99.5847916,19.5211254 L99.5223065,19.442212 L99.5223065,8.26907423 L98.9890558,8 L93.9006659,10.4906325 L93.9006659,10.9896634 L95.8305363,12.2072808 L95.8305363,18.8176885 C95.1599976,19.0040054 94.5149904,19.0946767 93.8619207,19.0946767 C92.4431289,19.0946767 91.6218645,18.6499128 91.6218645,16.3763486 L91.6218645,8.4822986 L91.0883899,8.21299826 L86,10.7036307 L86,11.2026617 L87.9300944,12.4205052 L87.9300944,18.2944635 C87.9300944,20.6840235 89.201296,22 91.5098841,22 C93.2399815,22 94.4598961,21.1428064 95.8305363,19.9970928" id="Fill-7" fill="#000000"></path>
                <polygon id="Fill-9" fill="#000000" points="103.81124 19.8411037 102.414494 19.8411037 102.414494 22 109 22 109 19.8411037 107.603254 19.8411037 107.519696 19.7557984 107.519696 0.267364619 106.995916 0 102 2.47272987 102 2.96817379 103.894798 4.1772635 103.894798 19.7557984"></polygon>
                <path d="M119.235633,18.9446743 C118.444901,19.3635478 117.652605,19.6038441 117.061176,19.6038441 C116.0841,19.6038441 115.518143,19.0826348 115.518143,16.417819 L115.518143,10.818166 L119.519617,10.818166 L119.519617,8.63575814 L115.518143,8.63575814 L115.518143,5 L114.967826,5 L110,10.2617859 L110,10.818166 L111.750156,10.818166 L111.835061,10.9041644 L111.835061,17.88433 C111.835061,20.6923251 112.950889,22 115.346322,22 C116.940075,22 118.654259,21.3272157 119.9323,20.2001602 L120,20.1404832 L119.33305,18.8929391 L119.235633,18.9446743 Z" id="Fill-11" fill="#000000"></path>
                <path d="M130.830536,19.9970928 L130.830536,21.6956522 L136,21.6956522 L136,19.5211254 L134.584792,19.5211254 L134.522306,19.442212 L134.522306,8.26907423 L133.988832,8 L128.900666,10.4906325 L128.900666,10.9896634 L130.830536,12.2072808 L130.830536,18.8176885 C130.159774,19.0040054 129.514766,19.0946767 128.861697,19.0946767 C127.443129,19.0946767 126.621641,18.6499128 126.621641,16.3763486 L126.621641,8.4822986 L126.08839,8.21299826 L121,10.7036307 L121,11.2026617 L122.92987,12.4205052 L122.92987,18.2944635 C122.92987,20.6840235 124.201296,22 126.50966,22 C128.239758,22 129.459896,21.1428064 130.830536,19.9970928" id="Fill-13" fill="#000000"></path>
                <path d="M138.929899,18.2944635 C138.929899,20.6840235 140.201344,22 142.509742,22 C144.239866,22 145.460022,21.1428064 146.830683,19.9970928 L146.830683,21.6954261 L152,21.6954261 L152,19.5208993 L150.584994,19.5208993 L150.522508,19.442212 L150.522508,8.26907423 L149.989026,8 L144.900784,10.4906325 L144.900784,10.9894373 L146.830683,12.2072808 L146.830683,18.8174624 C146.15991,19.0040054 145.514894,19.0946767 144.861814,19.0946767 C143.443225,19.0946767 142.621725,18.6499128 142.621725,16.3763486 L142.621725,8.48207249 L142.088466,8.21299826 L137,10.7036307 L137,11.2026617 L138.929899,12.4202791 L138.929899,18.2944635 Z" id="Fill-15" fill="#000000"></path>
                <path d="M155.858113,19.679086 L155.776173,19.7672984 L154.406469,19.7672984 L154.406469,22 L161.299838,22 L161.299838,19.7672984 L159.494555,19.7672984 L159.412615,19.679086 L159.412615,12.113018 C159.693369,12.0858578 159.981456,12.0605548 160.262857,12.0605548 C161.517628,12.0605548 162.695202,12.2328011 163.862857,12.5875077 L164,12.6290603 L164,8.3651528 L163.932075,8.33590343 C163.613801,8.19894211 163.358706,8.17131771 163.050135,8.17131771 C162.048733,8.17131771 160.817251,8.89210566 159.289272,10.3733771 L158.937143,8.27438691 L158.463827,8 L154,10.4669287 L154,11.0094347 L155.858113,12.2283905 L155.858113,19.679086 Z" id="Fill-17" fill="#000000"></path>
                <path d="M172.998113,19.8309001 L171.058957,19.8309001 L170.977275,19.7451917 L170.977275,11.2990773 L171.064746,11.1887841 L174.499057,11.1887841 L174.499057,9.01968423 L171.058957,9.01968423 L170.977275,8.93375026 L170.977275,4.85042034 C170.977275,2.881382 171.372824,2.07820381 172.342509,2.07820381 C173.068219,2.07820381 173.480276,2.47313922 174.024183,3.07400041 L175.614956,4.90229649 L176,4.90229649 L176,0.548533935 L175.927751,0.522595858 C174.901466,0.151343039 174.113798,0 173.208215,0 C169.275234,0 167.443272,2.54486365 167.443272,8.00855034 L167.443272,8.93375026 L167.361804,9.01968423 L166,9.01968423 L166,11.1887841 L167.356016,11.1887841 L167.443272,11.2990773 L167.443272,19.7451917 L167.361804,19.8309001 L166,19.8309001 L166,22 L172.998113,22 L172.998113,19.8309001 Z" id="Fill-19" fill="#000000"></path>
                <path d="M178.900067,14.0562405 C178.900067,11.6093373 179.714232,10.1483658 181.078035,10.1483658 C182.829228,10.1483658 184.100157,12.624686 184.100157,16.0366072 C184.100157,18.4835104 183.285768,19.9444818 181.921965,19.9444818 C180.170996,19.9444818 178.900067,17.4681616 178.900067,14.0562405 M181.319286,22 C185.252922,22 188,19.0513978 188,14.8298176 C188,10.7447511 185.460604,8 181.680938,8 C177.80974,8 175,11.0805194 175,15.3248518 C175,19.3175304 177.53962,22 181.319286,22" id="Fill-21" fill="#000000"></path>
                <path d="M204.426574,19.6902918 L204.426574,11.9669446 C204.426574,9.5393422 203.032882,8.20220369 200.501892,8.20220369 C198.817915,8.20220369 197.501117,8.83267156 195.704252,9.99864337 L195.350161,8.27307921 L194.838541,8 L190,10.4616505 L190,11.0027133 L192.014228,12.2189465 L192.014228,19.6842697 L191.925413,19.7722851 L190.440802,19.7722851 L190.440802,22 L197.440349,22 L197.440349,19.7722851 L195.955739,19.7722851 L195.86669,19.6842697 L195.86669,11.4643306 C196.824255,11.2236781 197.538513,11.1159751 198.173072,11.1159751 C199.765429,11.1159751 200.573878,11.5900999 200.573878,14.1812256 L200.573878,19.6842697 L200.485064,19.7722851 L199.000453,19.7722851 L199.000453,22 L206,22 L206,19.8035537 L204.5217,19.8035537 L204.426574,19.6902918 Z" id="Fill-23" fill="#000000"></path>
                <g id="Group-27" transform="translate(208.000000, 0.000000)">
                    <mask id="mask-2" fill="white">
                        <use xlink:href="#path-1"></use>
                    </mask>
                    <g id="Clip-26"></g>
                    <path d="M6.54700471,10.5211884 C7.48979134,10.5211884 8.20350011,10.9881974 8.7911151,11.9901964 L8.7911151,18.9707523 C8.15615885,19.1281935 7.5232219,19.2143322 7,19.2143322 C5.00740408,19.2143322 3.91002917,17.6547568 3.91002917,14.8230302 C3.91002917,12.048877 4.84653354,10.5211884 6.54700471,10.5211884 L6.54700471,10.5211884 Z M12.489567,19.4880273 L12.489567,0.266697802 L11.9876599,-0.000132861741 L6.85775185,2.43987302 L6.85775185,2.92858279 L8.7911151,4.12123835 L8.7911151,8.90027518 C8.15279336,8.64163766 7.42943684,8.51076885 6.63764864,8.51076885 C2.79156383,8.51076885 0,11.5668103 0,15.7771989 C0,19.4410829 1.97172986,22 4.79470496,22 C6.26766884,22 7.35494727,21.3166478 8.7911151,20.2617256 L8.7911151,21.7017254 L14,21.7017254 L14,19.5721731 L12.5748261,19.5721731 L12.489567,19.4880273 Z" id="Fill-25" fill="#000000" mask="url(#mask-2)"></path>
                </g>
                <path d="M230.409383,13.6129159 L230.278886,13.5481064 C228.713627,12.7729205 227.477505,12.1606776 227.477505,11.1163715 C227.477505,10.4531083 228.007834,10.0244923 228.828361,10.0244923 C229.466472,10.0244923 230.101106,10.3159052 230.705839,10.880805 L232.550634,13.057209 L233.126162,13.057209 L233.126162,8.68463647 L233.050367,8.65682814 C231.806828,8.20247222 230.658786,8 229.327631,8 C226.060589,8 224.031059,9.4786677 224.031059,11.8591526 C224.031059,13.714267 224.888441,14.8325755 227.428134,16.2905593 C227.799921,16.5045225 228.170317,16.6879196 228.528429,16.8653414 C229.660014,17.4261044 230.553786,17.8689693 230.553786,18.7905511 C230.553786,19.5434444 230.00445,19.9752778 229.046705,19.9752778 C228.098927,19.9752778 227.133533,19.4301427 226.328304,18.4398444 L224.576919,16.2930873 L224,16.2930873 L224,20.9366187 L224.066291,20.9676445 C225.360128,21.575291 227.305519,22 228.79707,22 C232.055073,22 234,20.4530755 234,17.8620746 C234,16.3939787 233.389472,15.1097395 230.409383,13.6129159" id="Fill-28" fill="#000000"></path>
                <path d="M72.9672756,31.4732258 L74.7616125,31.4732258 C79.4620634,31.4732258 82.3821356,34.4266251 82.3821356,39.1806751 C82.3821356,44.640751 79.7254096,47.5267742 74.6988003,47.5267742 L72.9672756,47.5267742 L72.9672756,31.4732258 Z M74.8867718,29 L66,29 L66,29.6611876 L68.8191073,31.5776113 L68.8191073,47.532468 L68.7307049,47.6226191 L66.3131308,47.6226191 L66.3131308,50 L74.7930186,50 C78.5719904,50 81.5558054,49.085203 83.6618773,47.2809937 C85.8768237,45.3833119 87,42.5933708 87,38.9889853 C87,32.7341558 82.4717012,29 74.8867718,29 L74.8867718,29 Z" id="Fill-30" fill="#000000"></path>
                <path d="M95.2817185,38.0245256 C96.1687134,38.0245256 97.1942432,38.3956924 97.2902414,41.260457 L93.0893348,41.260457 C93.191144,39.755565 93.6609073,38.0245256 95.2817185,38.0245256 L95.2817185,38.0245256 Z M100.841708,43.0050561 C100.974199,42.2845558 101,41.8391556 101,41.3135465 C101,38.1353011 98.8780459,36 95.7198698,36 C91.888777,36 89,39.1090682 89,43.2321229 C89,47.217053 91.7632588,50 95.7198698,50 C97.5410452,50 99.2604114,49.3879769 100.830086,48.1809377 L100.907721,48.1211833 L100.213187,46.8559984 L100.113238,46.9040318 C99.0307597,47.4236654 98.1021578,47.6659006 97.1907566,47.6659006 C94.7973114,47.6659006 93.3447875,46.0456366 93.0916592,43.0995141 L100.824507,43.0995141 L100.841708,43.0050561 Z" id="Fill-32" fill="#000000"></path>
                <path d="M116.426551,47.6904853 L116.426551,39.9667786 C116.426551,37.539136 115.032839,36.202207 112.501811,36.202207 C110.81781,36.202207 109.500993,36.8326853 107.704102,37.9984448 L107.350006,36.2730837 L106.838612,36 L102,38.4616912 L102,39.0027629 L104.014024,40.2190163 L104.014024,47.684463 L103.925207,47.7724799 L102.440575,47.7724799 L102.440575,50 L109.440224,50 L109.440224,47.7724799 L107.955592,47.7724799 L107.866776,47.684463 L107.866776,39.4641563 C108.824588,39.2234998 109.538623,39.115795 110.173192,39.115795 C111.765338,39.115795 112.573799,39.5899277 112.573799,42.1810962 L112.573799,47.684463 L112.484983,47.7724799 L111.000351,47.7724799 L111.000351,50 L118,50 L118,47.803749 L116.521678,47.803749 L116.426551,47.6904853 Z" id="Fill-34" fill="#000000"></path>
                <path d="M132.807956,40.22559 L134.530574,40.22559 C137.299539,40.22559 138.763241,41.4658661 138.763241,43.812142 C138.763241,46.1380156 137.169513,47.5268022 134.499886,47.5268022 L132.807956,47.5268022 L132.807956,40.22559 Z M134.102079,37.7523921 L132.807956,37.7523921 L132.807956,31.4731978 L134.224604,31.4731978 C136.565982,31.4731978 137.753039,32.4650866 137.753039,34.4211073 C137.753039,36.5382121 136.422317,37.7523921 134.102079,37.7523921 L134.102079,37.7523921 Z M138.256321,38.5879416 C140.668396,37.7104012 141.990025,36.0385906 141.990025,33.8462816 C141.990025,30.9477174 138.979876,29 134.499886,29 L126,29 L126,29.6611801 L128.754643,31.5778195 L128.754643,47.5322586 L128.668262,47.622646 L126.30597,47.622646 L126.30597,50 L134.836772,50 C139.64319,50 143,47.4029643 143,43.6845084 C143,41.2722805 141.235783,39.3883799 138.256321,38.5879416 L138.256321,38.5879416 Z" id="Fill-36" fill="#000000"></path>
                <path d="M151.921741,47.9444818 C150.170772,47.9444818 148.900067,45.4681616 148.900067,42.0562405 C148.900067,39.6091075 149.714232,38.1483658 151.078035,38.1483658 C152.829004,38.1483658 154.099933,40.624686 154.099933,44.0366072 C154.099933,46.4837402 153.285768,47.9444818 151.921741,47.9444818 M151.680714,36 C147.809516,36 145,39.0805194 145,43.3248518 C145,47.3173006 147.539396,50 151.319286,50 C155.252698,50 158,47.0513978 158,42.8298176 C158,38.7447511 155.460604,36 151.680714,36" id="Fill-38" fill="#000000"></path>
                <path d="M166.409383,41.6129159 L166.279814,41.5487959 C164.714322,40.7733802 163.477505,40.1609075 163.477505,39.1163715 C163.477505,38.4531083 164.007603,38.0244923 164.828361,38.0244923 C165.466472,38.0244923 166.101337,38.3159052 166.705607,38.8810349 L168.550402,41.057209 L169.126162,41.057209 L169.126162,36.6846365 L169.050367,36.6568281 C167.80706,36.2024722 166.658786,36 165.327631,36 C162.060589,36 160.031059,37.4786677 160.031059,39.8591526 C160.031059,41.714267 160.888441,42.8325755 163.428134,44.2905593 C163.799689,44.5042927 164.170086,44.6879196 164.528197,44.8653414 C165.660014,45.4261044 166.553786,45.8689693 166.553786,46.7905511 C166.553786,47.5434444 166.00445,47.9752778 165.046705,47.9752778 C164.098927,47.9752778 163.133533,47.4301427 162.328072,46.4398444 L160.576687,44.2930873 L160,44.2930873 L160,48.9366187 L160.066291,48.9676445 C161.360128,49.575291 163.305519,50 164.79707,50 C168.055073,50 170,48.4530755 170,45.8623044 C170,44.3942085 169.389472,43.1095097 166.409383,41.6129159" id="Fill-40" fill="#000000"></path>
                <path d="M183.242756,46.9072493 C182.367503,47.424125 181.634522,47.6351041 180.713389,47.6351041 C178.928252,47.6351041 176.843791,46.1982402 176.843791,42.1489592 C176.843791,40.2673846 177.226714,38.0245256 179.050232,38.0245256 C179.596603,38.0245256 180.047244,38.220566 180.6031,38.7008996 L182.88542,41.8924749 L183.437085,41.8924749 L183.437085,36.7154442 L183.364956,36.6876354 C182.193026,36.2376387 180.978303,36 179.852032,36 C175.817662,36 173,39.0118524 173,43.3247423 C173,47.3797689 175.433195,50 179.198681,50 C181.49622,50 183.042471,49.0080767 183.93515,48.1758815 L184,48.1152078 L183.340472,46.8495633 L183.242756,46.9072493 Z" id="Fill-42" fill="#000000"></path>
                <path d="M199.426574,47.7557984 L199.426574,40.2758747 C199.426574,37.9230212 198.032648,36.6272793 195.501892,36.6272793 C193.89668,36.6272793 192.615642,37.2095999 190.86669,38.286691 L190.86669,28.2673646 L190.310195,28 L185,30.4727299 L185,30.9681738 L187.014228,32.1772635 L187.014228,47.7557984 L186.925179,47.8411037 L185.440802,47.8411037 L185.440802,50 L192.440349,50 L192.440349,47.8411037 L190.955739,47.8411037 L190.86669,47.7557984 L190.86669,39.7887368 C191.824722,39.5554943 192.538747,39.4511076 193.173072,39.4511076 C194.765429,39.4511076 195.573878,39.9106336 195.573878,42.4219753 L195.573878,47.7557984 L195.48483,47.8411037 L194.000453,47.8411037 L194.000453,50 L201,50 L201,47.8411037 L199.515389,47.8411037 L199.426574,47.7557984 Z" id="Fill-44" fill="#000000"></path>
            </g>
        </g>
    </g>
</svg>